<svg width="392" height="97" viewBox="0 0 392 97" fill="none" xmlns="http://www.w3.org/2000/svg">
<g filter="url(#filter0_dddd_55_828)">
<rect width="380" height="76" rx="10" transform="matrix(-1 0 0 1 386 1)" fill="white"/>
<rect x="-0.5" y="0.5" width="379" height="75" rx="9.5" transform="matrix(-1 0 0 1 385 1)" stroke="#848EA0" stroke-opacity="0.2"/>
<rect width="62" height="62" rx="10" transform="matrix(-1 0 0 1 75 8)" fill="white"/>
<rect x="-0.5" y="0.5" width="61" height="61" rx="9.5" transform="matrix(-1 0 0 1 74 8)" stroke="#848EA0" stroke-opacity="0.2"/>
<path d="M55.5919 26.7966L37.2755 23.5622C36.762 23.4731 36.2342 23.5912 35.8076 23.8907C35.3811 24.1901 35.0907 24.6465 35.0001 25.1597L30.8166 48.9253C30.7716 49.18 30.7773 49.441 30.8333 49.6935C30.8893 49.9459 30.9944 50.1849 31.1428 50.3967C31.2911 50.6085 31.4798 50.789 31.6979 50.9279C31.916 51.0669 32.1594 51.1614 32.4141 51.2063L50.7305 54.4406C50.8446 54.4614 50.9604 54.4718 51.0764 54.4716C51.5373 54.4679 51.9823 54.3025 52.3338 54.0045C52.6853 53.7064 52.9212 53.2944 53.0001 52.8403L57.1837 29.0747C57.2738 28.5616 57.1568 28.0338 56.8584 27.6068C56.56 27.1798 56.1046 26.8884 55.5919 26.7966ZM55.5314 28.785L51.3478 52.5506C51.3416 52.5872 51.3282 52.6222 51.3084 52.6536C51.2886 52.6849 51.2628 52.7121 51.2325 52.7334C51.1715 52.776 51.0962 52.7927 51.023 52.7798L32.7009 49.5469C32.6636 49.541 32.6278 49.5276 32.5958 49.5076C32.5637 49.4875 32.5361 49.4612 32.5144 49.4302C32.4927 49.3993 32.4775 49.3642 32.4697 49.3273C32.4619 49.2903 32.4616 49.2521 32.4689 49.215L36.6525 25.4494C36.6587 25.4128 36.6721 25.3778 36.6919 25.3465C36.7117 25.3151 36.7375 25.2879 36.7678 25.2666C36.8304 25.2229 36.9077 25.2057 36.983 25.2188L55.2994 28.4531C55.3367 28.459 55.3725 28.4724 55.4045 28.4925C55.4366 28.5125 55.4642 28.5388 55.4859 28.5698C55.5076 28.6007 55.5227 28.6358 55.5306 28.6727C55.5384 28.7097 55.5387 28.7479 55.5314 28.785ZM52.1719 31.6186C52.1387 31.8148 52.0372 31.993 51.8854 32.1217C51.7336 32.2503 51.5412 32.3212 51.3422 32.3217C51.2927 32.3218 51.2433 32.3176 51.1945 32.3091L39.5226 30.2475C39.4107 30.2315 39.303 30.1931 39.2062 30.1346C39.1093 30.0761 39.0252 29.9987 38.9589 29.9071C38.8925 29.8155 38.8453 29.7114 38.8199 29.6012C38.7946 29.4909 38.7917 29.3767 38.8114 29.2652C38.8311 29.1538 38.8731 29.0475 38.9347 28.9527C38.9963 28.8578 39.0764 28.7763 39.1702 28.713C39.264 28.6497 39.3695 28.6059 39.4805 28.5842C39.5916 28.5625 39.7059 28.5634 39.8166 28.5867L51.4884 30.6469C51.7075 30.686 51.9022 30.8101 52.0301 30.9921C52.1581 31.1741 52.2091 31.3992 52.1719 31.6186ZM51.3914 36.0469C51.3582 36.2431 51.2568 36.4213 51.1049 36.5499C50.9531 36.6786 50.7607 36.7495 50.5617 36.75C50.5145 36.7496 50.4674 36.7449 50.4211 36.7359L38.7492 34.6758C38.5288 34.6368 38.3329 34.5119 38.2046 34.3284C38.0763 34.145 38.0261 33.9182 38.0651 33.6977C38.104 33.4773 38.229 33.2814 38.4124 33.1531C38.5958 33.0248 38.8227 32.9746 39.0431 33.0136L50.715 35.0752C50.9327 35.1159 51.1257 35.2407 51.2522 35.4225C51.3788 35.6043 51.4288 35.8285 51.3914 36.0469ZM44.782 39.4486C44.7473 39.6438 44.645 39.8205 44.4931 39.9478C44.3411 40.0751 44.1492 40.1448 43.9509 40.1447C43.9014 40.1445 43.8521 40.1403 43.8033 40.132L37.9687 39.1013C37.8567 39.0852 37.7491 39.0468 37.6523 38.9883C37.5554 38.9299 37.4713 38.8525 37.405 38.7609C37.3386 38.6692 37.2914 38.5652 37.266 38.4549C37.2407 38.3446 37.2378 38.2304 37.2575 38.119C37.2772 38.0076 37.3192 37.9013 37.3808 37.8064C37.4424 37.7115 37.5225 37.63 37.6163 37.5667C37.7101 37.5034 37.8156 37.4596 37.9266 37.4379C38.0377 37.4162 38.1519 37.4171 38.2626 37.4405L44.0972 38.4698C44.2065 38.4895 44.3109 38.5305 44.4043 38.5906C44.4978 38.6507 44.5784 38.7286 44.6416 38.82C44.7049 38.9113 44.7495 39.0142 44.7728 39.1228C44.7962 39.2314 44.7979 39.3436 44.7778 39.4528L44.782 39.4486Z" fill="#848EA0"/>
<rect x="87" y="13" width="256" height="20" rx="10" fill="#E6E8EC" fill-opacity="0.3"/>
<rect x="87" y="37" width="114" height="12" rx="6" fill="#E6E8EC" fill-opacity="0.3"/>
<rect x="87" y="53" width="114" height="12" rx="6" fill="#E6E8EC" fill-opacity="0.3"/>
</g>
<defs>
<filter id="filter0_dddd_55_828" x="0" y="0" width="392" height="97" filterUnits="userSpaceOnUse" color-interpolation-filters="sRGB">
<feFlood flood-opacity="0" result="BackgroundImageFix"/>
<feColorMatrix in="SourceAlpha" type="matrix" values="0 0 0 0 0 0 0 0 0 0 0 0 0 0 0 0 0 0 127 0" result="hardAlpha"/>
<feOffset dy="1"/>
<feGaussianBlur stdDeviation="1"/>
<feColorMatrix type="matrix" values="0 0 0 0 0 0 0 0 0 0 0 0 0 0 0 0 0 0 0.05 0"/>
<feBlend mode="normal" in2="BackgroundImageFix" result="effect1_dropShadow_55_828"/>
<feColorMatrix in="SourceAlpha" type="matrix" values="0 0 0 0 0 0 0 0 0 0 0 0 0 0 0 0 0 0 127 0" result="hardAlpha"/>
<feOffset dy="3"/>
<feGaussianBlur stdDeviation="1.5"/>
<feColorMatrix type="matrix" values="0 0 0 0 0 0 0 0 0 0 0 0 0 0 0 0 0 0 0.04 0"/>
<feBlend mode="normal" in2="effect1_dropShadow_55_828" result="effect2_dropShadow_55_828"/>
<feColorMatrix in="SourceAlpha" type="matrix" values="0 0 0 0 0 0 0 0 0 0 0 0 0 0 0 0 0 0 127 0" result="hardAlpha"/>
<feOffset dy="8"/>
<feGaussianBlur stdDeviation="2.5"/>
<feColorMatrix type="matrix" values="0 0 0 0 0 0 0 0 0 0 0 0 0 0 0 0 0 0 0.03 0"/>
<feBlend mode="normal" in2="effect2_dropShadow_55_828" result="effect3_dropShadow_55_828"/>
<feColorMatrix in="SourceAlpha" type="matrix" values="0 0 0 0 0 0 0 0 0 0 0 0 0 0 0 0 0 0 127 0" result="hardAlpha"/>
<feOffset dy="14"/>
<feGaussianBlur stdDeviation="3"/>
<feColorMatrix type="matrix" values="0 0 0 0 0 0 0 0 0 0 0 0 0 0 0 0 0 0 0.01 0"/>
<feBlend mode="normal" in2="effect3_dropShadow_55_828" result="effect4_dropShadow_55_828"/>
<feBlend mode="normal" in="SourceGraphic" in2="effect4_dropShadow_55_828" result="shape"/>
</filter>
</defs>
</svg>
