<svg width="219" height="291" viewBox="0 0 219 291" fill="none" xmlns="http://www.w3.org/2000/svg">
<g filter="url(#filter0_dddd_55_871)">
<rect x="-0.5" y="0.5" width="162" height="186" rx="9.5" transform="matrix(-1 0 0 1 181 6)" fill="white" stroke="#E6E8EC"/>
<path fill-rule="evenodd" clip-rule="evenodd" d="M159 111.5C159 143.809 132.809 170 100.5 170C68.1913 170 42 143.809 42 111.5C42 79.1913 68.1913 53 100.5 53C132.809 53 159 79.1913 159 111.5ZM137.55 111.5C137.55 131.962 120.962 148.55 100.5 148.55C80.0379 148.55 63.45 131.962 63.45 111.5C63.45 91.0378 80.0379 74.45 100.5 74.45C120.962 74.45 137.55 91.0378 137.55 111.5Z" fill="#E1E4E8"/>
<mask id="mask0_55_871" style="mask-type:luminance" maskUnits="userSpaceOnUse" x="42" y="53" width="117" height="117">
<path fill-rule="evenodd" clip-rule="evenodd" d="M159 111.5C159 143.809 132.809 170 100.5 170C68.1913 170 42 143.809 42 111.5C42 79.1913 68.1913 53 100.5 53C132.809 53 159 79.1913 159 111.5ZM137.55 111.5C137.55 131.962 120.962 148.55 100.5 148.55C80.0379 148.55 63.45 131.962 63.45 111.5C63.45 91.0378 80.0379 74.45 100.5 74.45C120.962 74.45 137.55 91.0378 137.55 111.5Z" fill="white"/>
</mask>
<g mask="url(#mask0_55_871)">
<mask id="mask1_55_871" style="mask-type:luminance" maskUnits="userSpaceOnUse" x="80" y="44" width="88" height="137">
<path fill-rule="evenodd" clip-rule="evenodd" d="M100.532 44.1165L100.5 111.5L80.2661 180.713C80.2661 180.713 145.419 167.736 160.418 144.556C175.416 121.376 160.418 59.2607 160.418 59.2607L100.532 44.1165Z" fill="white"/>
</mask>
<g mask="url(#mask1_55_871)">
<rect x="41.6367" y="53.1746" width="117" height="117" fill="#1BD1C2"/>
</g>
<path opacity="0.3" fill-rule="evenodd" clip-rule="evenodd" d="M100.5 152.45C123.116 152.45 141.45 134.116 141.45 111.5C141.45 88.8837 123.116 70.5498 100.5 70.5498C77.8837 70.5498 59.5498 88.8837 59.5498 111.5C59.5498 134.116 77.8837 152.45 100.5 152.45Z" fill="white"/>
</g>
<path d="M48.036 30V19.92H49.52V30H48.036ZM51.5767 30V22.86H52.9627V24.54H53.0327V30H51.5767ZM56.6447 30V25.408C56.6447 24.9133 56.5187 24.5447 56.2667 24.302C56.024 24.0593 55.66 23.938 55.1747 23.938C54.7547 23.938 54.3814 24.0313 54.0547 24.218C53.7374 24.4047 53.4854 24.6613 53.2987 24.988C53.1214 25.3147 53.0327 25.702 53.0327 26.15L52.8507 24.442C53.084 23.91 53.4434 23.49 53.9287 23.182C54.414 22.874 54.9787 22.72 55.6227 22.72C56.388 22.72 56.99 22.9347 57.4287 23.364C57.8674 23.7933 58.0867 24.3627 58.0867 25.072V30H56.6447ZM62.8725 30.14C62.0418 30.14 61.4305 29.9487 61.0385 29.566C60.6558 29.174 60.4645 28.6 60.4645 27.844V21.222L61.9065 20.676V27.858C61.9065 28.2313 62.0045 28.5067 62.2005 28.684C62.3965 28.8613 62.7138 28.95 63.1525 28.95C63.3205 28.95 63.4698 28.936 63.6005 28.908C63.7312 28.88 63.8432 28.8473 63.9365 28.81V29.986C63.8338 30.0327 63.6892 30.07 63.5025 30.098C63.3158 30.126 63.1058 30.14 62.8725 30.14ZM59.0365 24.022V22.86H63.9365V24.022H59.0365ZM68.2192 30.14C67.5005 30.14 66.8659 29.9813 66.3152 29.664C65.7739 29.3467 65.3492 28.908 65.0412 28.348C64.7332 27.788 64.5792 27.144 64.5792 26.416C64.5792 25.6787 64.7285 25.0347 65.0272 24.484C65.3352 23.924 65.7645 23.49 66.3152 23.182C66.8659 22.874 67.4959 22.72 68.2052 22.72C68.8959 22.72 69.4932 22.8693 69.9972 23.168C70.5105 23.4573 70.9025 23.8633 71.1732 24.386C71.4532 24.9087 71.5932 25.5293 71.5932 26.248C71.5932 26.36 71.5885 26.4673 71.5792 26.57C71.5792 26.6633 71.5699 26.7613 71.5512 26.864H65.5592V25.772H70.5292L70.1652 26.206C70.1652 25.4407 69.9925 24.8573 69.6472 24.456C69.3019 24.0547 68.8212 23.854 68.2052 23.854C67.5425 23.854 67.0152 24.0827 66.6232 24.54C66.2405 24.988 66.0492 25.6133 66.0492 26.416C66.0492 27.228 66.2405 27.8627 66.6232 28.32C67.0152 28.7773 67.5565 29.006 68.2472 29.006C68.6672 29.006 69.0312 28.922 69.3392 28.754C69.6472 28.5767 69.8759 28.32 70.0252 27.984H71.3972C71.1639 28.656 70.7672 29.1833 70.2072 29.566C69.6565 29.9487 68.9939 30.14 68.2192 30.14ZM73.0825 30V22.86H74.4685V24.638H74.5385V30H73.0825ZM74.5385 26.276L74.3565 24.582C74.5245 23.9753 74.8139 23.5133 75.2245 23.196C75.6352 22.8787 76.1252 22.72 76.6945 22.72C76.9092 22.72 77.0585 22.7387 77.1425 22.776V24.148C77.0959 24.1293 77.0305 24.12 76.9465 24.12C76.8625 24.1107 76.7599 24.106 76.6385 24.106C75.9385 24.106 75.4112 24.288 75.0565 24.652C74.7112 25.016 74.5385 25.5573 74.5385 26.276ZM80.568 30L77.656 22.86H79.21L81.59 29.342H80.904L83.256 22.86H84.754L81.856 30H80.568ZM85.8384 30V22.86H87.2944V30H85.8384ZM85.7684 21.46V19.822H87.3784V21.46H85.7684ZM92.3911 30.14C91.6724 30.14 91.0377 29.9813 90.4871 29.664C89.9457 29.3467 89.5211 28.908 89.2131 28.348C88.9051 27.788 88.7511 27.144 88.7511 26.416C88.7511 25.6787 88.9004 25.0347 89.1991 24.484C89.5071 23.924 89.9364 23.49 90.4871 23.182C91.0377 22.874 91.6677 22.72 92.3771 22.72C93.0677 22.72 93.6651 22.8693 94.1691 23.168C94.6824 23.4573 95.0744 23.8633 95.3451 24.386C95.6251 24.9087 95.7651 25.5293 95.7651 26.248C95.7651 26.36 95.7604 26.4673 95.7511 26.57C95.7511 26.6633 95.7417 26.7613 95.7231 26.864H89.7311V25.772H94.7011L94.3371 26.206C94.3371 25.4407 94.1644 24.8573 93.8191 24.456C93.4737 24.0547 92.9931 23.854 92.3771 23.854C91.7144 23.854 91.1871 24.0827 90.7951 24.54C90.4124 24.988 90.2211 25.6133 90.2211 26.416C90.2211 27.228 90.4124 27.8627 90.7951 28.32C91.1871 28.7773 91.7284 29.006 92.4191 29.006C92.8391 29.006 93.2031 28.922 93.5111 28.754C93.8191 28.5767 94.0477 28.32 94.1971 27.984H95.5691C95.3357 28.656 94.9391 29.1833 94.3791 29.566C93.8284 29.9487 93.1657 30.14 92.3911 30.14ZM98.574 30L96.39 22.86H97.888L99.372 28.6H99.162L100.968 22.86H102.228L104.034 28.6H103.838L105.308 22.86H106.736L104.552 30H103.278L101.472 24.358H101.682L99.848 30H98.574ZM110.522 30.14C109.588 30.14 108.846 29.9347 108.296 29.524C107.745 29.1133 107.432 28.5347 107.358 27.788H108.702C108.767 28.1987 108.954 28.516 109.262 28.74C109.579 28.9547 110.008 29.062 110.55 29.062C111.026 29.062 111.39 28.978 111.642 28.81C111.894 28.642 112.02 28.404 112.02 28.096C112.02 27.872 111.945 27.6853 111.796 27.536C111.656 27.3773 111.376 27.2467 110.956 27.144L109.808 26.878C109.089 26.7007 108.552 26.4393 108.198 26.094C107.852 25.7393 107.68 25.3053 107.68 24.792C107.68 24.148 107.918 23.644 108.394 23.28C108.879 22.9067 109.542 22.72 110.382 22.72C111.212 22.72 111.88 22.9067 112.384 23.28C112.897 23.6533 113.186 24.176 113.252 24.848H111.908C111.852 24.512 111.688 24.2553 111.418 24.078C111.156 23.8913 110.797 23.798 110.34 23.798C109.91 23.798 109.579 23.8773 109.346 24.036C109.122 24.1853 109.01 24.3953 109.01 24.666C109.01 24.89 109.094 25.0767 109.262 25.226C109.439 25.3753 109.728 25.5013 110.13 25.604L111.306 25.898C111.987 26.066 112.5 26.3413 112.846 26.724C113.191 27.0973 113.364 27.55 113.364 28.082C113.364 28.726 113.112 29.23 112.608 29.594C112.113 29.958 111.418 30.14 110.522 30.14ZM121.143 30.126C119.93 30.126 118.959 29.8367 118.231 29.258C117.503 28.6793 117.078 27.8533 116.957 26.78H118.399C118.483 27.48 118.763 28.012 119.239 28.376C119.715 28.74 120.359 28.922 121.171 28.922C121.852 28.922 122.366 28.796 122.711 28.544C123.066 28.292 123.243 27.9327 123.243 27.466C123.243 27.046 123.126 26.7147 122.893 26.472C122.66 26.22 122.291 26.0147 121.787 25.856L120.037 25.296C119.141 25.0067 118.483 24.6427 118.063 24.204C117.643 23.7653 117.433 23.21 117.433 22.538C117.433 21.9687 117.573 21.4787 117.853 21.068C118.142 20.6573 118.544 20.34 119.057 20.116C119.58 19.8827 120.186 19.766 120.877 19.766C121.941 19.766 122.79 20.0367 123.425 20.578C124.069 21.11 124.438 21.852 124.531 22.804H123.089C122.977 22.1693 122.734 21.7073 122.361 21.418C121.988 21.1193 121.474 20.97 120.821 20.97C120.205 20.97 119.724 21.0913 119.379 21.334C119.034 21.5767 118.861 21.9173 118.861 22.356C118.861 22.7107 118.973 23.0093 119.197 23.252C119.43 23.4853 119.813 23.686 120.345 23.854L122.179 24.442C123.028 24.7127 123.654 25.0813 124.055 25.548C124.466 26.0147 124.671 26.6027 124.671 27.312C124.671 28.208 124.363 28.9033 123.747 29.398C123.131 29.8833 122.263 30.126 121.143 30.126ZM129.138 30.14C128.457 30.14 127.85 29.9813 127.318 29.664C126.786 29.3373 126.366 28.894 126.058 28.334C125.76 27.774 125.61 27.1347 125.61 26.416C125.61 25.6973 125.76 25.0627 126.058 24.512C126.366 23.952 126.786 23.5133 127.318 23.196C127.85 22.8787 128.452 22.72 129.124 22.72C129.694 22.72 130.202 22.8273 130.65 23.042C131.098 23.2567 131.467 23.5553 131.756 23.938C132.046 24.3207 132.232 24.7733 132.316 25.296H130.944C130.851 24.876 130.646 24.54 130.328 24.288C130.02 24.036 129.628 23.91 129.152 23.91C128.742 23.91 128.382 24.0127 128.074 24.218C127.766 24.4233 127.528 24.7127 127.36 25.086C127.192 25.4593 127.108 25.9027 127.108 26.416C127.108 26.92 127.192 27.3633 127.36 27.746C127.528 28.1287 127.766 28.4273 128.074 28.642C128.382 28.8473 128.746 28.95 129.166 28.95C129.624 28.95 130.011 28.8287 130.328 28.586C130.655 28.334 130.865 27.998 130.958 27.578H132.33C132.237 28.0913 132.041 28.5393 131.742 28.922C131.453 29.3047 131.084 29.6033 130.636 29.818C130.188 30.0327 129.689 30.14 129.138 30.14ZM136.853 30.14C136.125 30.14 135.485 29.9813 134.935 29.664C134.384 29.3373 133.955 28.894 133.647 28.334C133.339 27.7647 133.185 27.1207 133.185 26.402C133.185 25.674 133.339 25.0347 133.647 24.484C133.964 23.9333 134.393 23.504 134.935 23.196C135.485 22.8787 136.125 22.72 136.853 22.72C137.59 22.72 138.234 22.8787 138.785 23.196C139.335 23.504 139.76 23.9333 140.059 24.484C140.367 25.0347 140.521 25.674 140.521 26.402C140.521 27.1207 140.367 27.7647 140.059 28.334C139.76 28.894 139.335 29.3373 138.785 29.664C138.234 29.9813 137.59 30.14 136.853 30.14ZM136.853 28.95C137.291 28.95 137.669 28.8427 137.987 28.628C138.313 28.4133 138.57 28.1147 138.757 27.732C138.943 27.3493 139.037 26.9013 139.037 26.388C139.037 25.6227 138.831 25.0207 138.421 24.582C138.019 24.134 137.497 23.91 136.853 23.91C136.218 23.91 135.695 24.134 135.285 24.582C134.883 25.03 134.683 25.632 134.683 26.388C134.683 26.9013 134.771 27.3493 134.949 27.732C135.135 28.1147 135.392 28.4133 135.719 28.628C136.055 28.8427 136.433 28.95 136.853 28.95ZM142.016 30V22.86H143.402V24.638H143.472V30H142.016ZM143.472 26.276L143.29 24.582C143.458 23.9753 143.747 23.5133 144.158 23.196C144.569 22.8787 145.059 22.72 145.628 22.72C145.843 22.72 145.992 22.7387 146.076 22.776V24.148C146.029 24.1293 145.964 24.12 145.88 24.12C145.796 24.1107 145.693 24.106 145.572 24.106C144.872 24.106 144.345 24.288 143.99 24.652C143.645 25.016 143.472 25.5573 143.472 26.276ZM150.25 30.14C149.532 30.14 148.897 29.9813 148.346 29.664C147.805 29.3467 147.38 28.908 147.072 28.348C146.764 27.788 146.61 27.144 146.61 26.416C146.61 25.6787 146.76 25.0347 147.058 24.484C147.366 23.924 147.796 23.49 148.346 23.182C148.897 22.874 149.527 22.72 150.236 22.72C150.927 22.72 151.524 22.8693 152.028 23.168C152.542 23.4573 152.934 23.8633 153.204 24.386C153.484 24.9087 153.624 25.5293 153.624 26.248C153.624 26.36 153.62 26.4673 153.61 26.57C153.61 26.6633 153.601 26.7613 153.582 26.864H147.59V25.772H152.56L152.196 26.206C152.196 25.4407 152.024 24.8573 151.678 24.456C151.333 24.0547 150.852 23.854 150.236 23.854C149.574 23.854 149.046 24.0827 148.654 24.54C148.272 24.988 148.08 25.6133 148.08 26.416C148.08 27.228 148.272 27.8627 148.654 28.32C149.046 28.7773 149.588 29.006 150.278 29.006C150.698 29.006 151.062 28.922 151.37 28.754C151.678 28.5767 151.907 28.32 152.056 27.984H153.428C153.195 28.656 152.798 29.1833 152.238 29.566C151.688 29.9487 151.025 30.14 150.25 30.14Z" fill="#0B1928"/>
<path d="M83.936 120.24C82.848 120.24 81.888 120.032 81.056 119.616C80.24 119.2 79.584 118.6 79.088 117.816C78.592 117.032 78.28 116.072 78.152 114.936H80.768C80.912 116.056 81.264 116.872 81.824 117.384C82.384 117.896 83.112 118.152 84.008 118.152C84.68 118.152 85.248 118.016 85.712 117.744C86.192 117.472 86.576 117.056 86.864 116.496C87.168 115.936 87.392 115.224 87.536 114.36C87.68 113.48 87.752 112.432 87.752 111.216V109.656L88.448 109.704C88.288 110.456 87.968 111.12 87.488 111.696C87.008 112.256 86.408 112.688 85.688 112.992C84.984 113.296 84.2 113.448 83.336 113.448C82.264 113.448 81.32 113.216 80.504 112.752C79.688 112.288 79.048 111.648 78.584 110.832C78.12 110 77.888 109.056 77.888 108C77.888 106.88 78.144 105.912 78.656 105.096C79.168 104.264 79.88 103.624 80.792 103.176C81.72 102.712 82.784 102.48 83.984 102.48C86.112 102.48 87.736 103.224 88.856 104.712C89.992 106.2 90.56 108.368 90.56 111.216C90.56 113.12 90.296 114.752 89.768 116.112C89.256 117.456 88.504 118.48 87.512 119.184C86.536 119.888 85.344 120.24 83.936 120.24ZM84.08 111.408C85.12 111.408 85.952 111.12 86.576 110.544C87.216 109.968 87.536 109.168 87.536 108.144C87.536 107.456 87.384 106.848 87.08 106.32C86.792 105.776 86.384 105.352 85.856 105.048C85.328 104.728 84.712 104.568 84.008 104.568C83 104.568 82.192 104.888 81.584 105.528C80.992 106.152 80.696 106.984 80.696 108.024C80.696 109.032 80.992 109.848 81.584 110.472C82.176 111.096 83.008 111.408 84.08 111.408ZM99.0097 120.24C97.7617 120.24 96.6737 120.024 95.7457 119.592C94.8337 119.16 94.1217 118.568 93.6097 117.816C93.1137 117.048 92.8657 116.184 92.8657 115.224C92.8657 114.36 93.0497 113.584 93.4177 112.896C93.8017 112.208 94.3217 111.664 94.9777 111.264C95.6497 110.848 96.3937 110.64 97.2097 110.64L97.3777 111.144C96.5617 111.144 95.8497 110.976 95.2417 110.64C94.6337 110.288 94.1537 109.808 93.8017 109.2C93.4657 108.576 93.2977 107.88 93.2977 107.112C93.2977 106.2 93.5377 105.4 94.0177 104.712C94.4977 104.008 95.1617 103.464 96.0097 103.08C96.8737 102.68 97.8817 102.48 99.0337 102.48C100.17 102.48 101.162 102.68 102.01 103.08C102.858 103.464 103.522 104.008 104.002 104.712C104.482 105.4 104.722 106.2 104.722 107.112C104.722 107.88 104.546 108.568 104.194 109.176C103.858 109.784 103.386 110.264 102.778 110.616C102.17 110.968 101.45 111.144 100.618 111.144L100.81 110.64C101.642 110.64 102.386 110.848 103.042 111.264C103.698 111.664 104.21 112.208 104.578 112.896C104.962 113.584 105.154 114.368 105.154 115.248C105.154 116.208 104.898 117.064 104.386 117.816C103.89 118.568 103.178 119.16 102.25 119.592C101.338 120.024 100.258 120.24 99.0097 120.24ZM99.0097 118.152C100.066 118.152 100.898 117.872 101.506 117.312C102.13 116.736 102.442 115.968 102.442 115.008C102.442 114.064 102.13 113.32 101.506 112.776C100.898 112.232 100.066 111.96 99.0097 111.96C97.9537 111.96 97.1137 112.232 96.4897 112.776C95.8817 113.32 95.5777 114.064 95.5777 115.008C95.5777 115.968 95.8817 116.736 96.4897 117.312C97.1137 117.872 97.9537 118.152 99.0097 118.152ZM99.0097 109.968C99.9377 109.968 100.666 109.728 101.194 109.248C101.738 108.768 102.01 108.12 102.01 107.304C102.01 106.472 101.73 105.808 101.17 105.312C100.626 104.816 99.9057 104.568 99.0097 104.568C98.0977 104.568 97.3697 104.816 96.8257 105.312C96.2817 105.808 96.0097 106.472 96.0097 107.304C96.0097 108.12 96.2817 108.768 96.8257 109.248C97.3697 109.728 98.0977 109.968 99.0097 109.968ZM107.913 120L120.729 102.72H122.961L110.169 120H107.913ZM120.033 120.24C119.361 120.24 118.729 120.08 118.137 119.76C117.545 119.44 117.065 118.952 116.697 118.296C116.329 117.64 116.145 116.808 116.145 115.8C116.145 114.792 116.321 113.968 116.673 113.328C117.041 112.672 117.521 112.184 118.113 111.864C118.705 111.544 119.345 111.384 120.033 111.384C120.753 111.384 121.409 111.544 122.001 111.864C122.609 112.184 123.089 112.672 123.441 113.328C123.793 113.968 123.969 114.792 123.969 115.8C123.969 116.808 123.785 117.64 123.417 118.296C123.049 118.952 122.561 119.44 121.953 119.76C121.361 120.08 120.721 120.24 120.033 120.24ZM120.033 118.68C120.641 118.68 121.137 118.432 121.521 117.936C121.921 117.424 122.121 116.704 122.121 115.776C122.121 114.864 121.921 114.168 121.521 113.688C121.137 113.192 120.641 112.944 120.033 112.944C119.425 112.944 118.937 113.184 118.569 113.664C118.201 114.144 118.017 114.848 118.017 115.776C118.017 116.72 118.201 117.44 118.569 117.936C118.937 118.432 119.425 118.68 120.033 118.68ZM110.673 111.336C109.985 111.336 109.345 111.176 108.753 110.856C108.161 110.536 107.681 110.048 107.313 109.392C106.961 108.736 106.785 107.904 106.785 106.896C106.785 105.888 106.961 105.064 107.313 104.424C107.681 103.768 108.161 103.28 108.753 102.96C109.345 102.64 109.985 102.48 110.673 102.48C111.393 102.48 112.049 102.64 112.641 102.96C113.233 103.28 113.705 103.768 114.057 104.424C114.409 105.064 114.585 105.888 114.585 106.896C114.585 107.904 114.401 108.736 114.033 109.392C113.665 110.048 113.185 110.536 112.593 110.856C112.001 111.176 111.361 111.336 110.673 111.336ZM110.673 109.776C111.265 109.776 111.753 109.528 112.137 109.032C112.537 108.536 112.737 107.816 112.737 106.872C112.737 105.96 112.545 105.264 112.161 104.784C111.777 104.288 111.281 104.04 110.673 104.04C110.065 104.04 109.569 104.28 109.185 104.76C108.817 105.24 108.633 105.944 108.633 106.872C108.633 107.816 108.817 108.536 109.185 109.032C109.569 109.528 110.065 109.776 110.673 109.776Z" fill="#0B1928"/>
</g>
<defs>
<filter id="filter0_dddd_55_871" x="0" y="0" width="219" height="291" filterUnits="userSpaceOnUse" color-interpolation-filters="sRGB">
<feFlood flood-opacity="0" result="BackgroundImageFix"/>
<feColorMatrix in="SourceAlpha" type="matrix" values="0 0 0 0 0 0 0 0 0 0 0 0 0 0 0 0 0 0 127 0" result="hardAlpha"/>
<feOffset dx="1" dy="4"/>
<feGaussianBlur stdDeviation="5"/>
<feColorMatrix type="matrix" values="0 0 0 0 0 0 0 0 0 0 0 0 0 0 0 0 0 0 0.1 0"/>
<feBlend mode="normal" in2="BackgroundImageFix" result="effect1_dropShadow_55_871"/>
<feColorMatrix in="SourceAlpha" type="matrix" values="0 0 0 0 0 0 0 0 0 0 0 0 0 0 0 0 0 0 127 0" result="hardAlpha"/>
<feOffset dx="2" dy="17"/>
<feGaussianBlur stdDeviation="9"/>
<feColorMatrix type="matrix" values="0 0 0 0 0 0 0 0 0 0 0 0 0 0 0 0 0 0 0.09 0"/>
<feBlend mode="normal" in2="effect1_dropShadow_55_871" result="effect2_dropShadow_55_871"/>
<feColorMatrix in="SourceAlpha" type="matrix" values="0 0 0 0 0 0 0 0 0 0 0 0 0 0 0 0 0 0 127 0" result="hardAlpha"/>
<feOffset dx="5" dy="39"/>
<feGaussianBlur stdDeviation="12"/>
<feColorMatrix type="matrix" values="0 0 0 0 0 0 0 0 0 0 0 0 0 0 0 0 0 0 0.05 0"/>
<feBlend mode="normal" in2="effect2_dropShadow_55_871" result="effect3_dropShadow_55_871"/>
<feColorMatrix in="SourceAlpha" type="matrix" values="0 0 0 0 0 0 0 0 0 0 0 0 0 0 0 0 0 0 127 0" result="hardAlpha"/>
<feOffset dx="9" dy="70"/>
<feGaussianBlur stdDeviation="14"/>
<feColorMatrix type="matrix" values="0 0 0 0 0 0 0 0 0 0 0 0 0 0 0 0 0 0 0.01 0"/>
<feBlend mode="normal" in2="effect3_dropShadow_55_871" result="effect4_dropShadow_55_871"/>
<feBlend mode="normal" in="SourceGraphic" in2="effect4_dropShadow_55_871" result="shape"/>
</filter>
</defs>
</svg>
